# xmcd
#
# Track frame offsets: 
#        182
#        14417
#        29337
#        42607
#        58090
#        70862
#        87055
#        101875
#        118047
#        135342
#        146132
#        164412
#
# Disc length: 2444 seconds
#
# Revision: 1
# Processed by: cddbd v1.5PL3 Copyright (c) Steve Scherf et al.
# Submitted via: ExactAudioCopy v0.95a3
#
DISCID=ab098a0c
DTITLE=Hal Ketchum - Lucky Man
DYEAR=2001
DGENRE=Country
TTITLE0=(She's Something) You're Everything
TTITLE1=You Can't Go Back
TTITLE2=That's How Much You Mean To Me
TTITLE3=Loving You Makes Me A Better Man
TTITLE4=Don't Let Go
TTITLE5=Dreams Of Martina
TTITLE6=She's Still In Dallas
TTITLE7=Two Of The Lucky One's (And Dolly Parton)
TTITLE8=Richest Man In Texas
TTITLE9=Livin' Life Lovin' You
TTITLE10=Keep Mom and Dad In Love (And Lisa Brokop)
TTITLE11=She Is
EXTD=
EXTT0=
EXTT1=
EXTT2=
EXTT3=
EXTT4=
EXTT5=
EXTT6=
EXTT7=
EXTT8=
EXTT9=
EXTT10=
EXTT11=
PLAYORDER=
